<?xml version="1.0" encoding="UTF-8" standalone="no"?>
<svg xmlns="http://www.w3.org/2000/svg" xmlns:xlink="http://www.w3.org/1999/xlink" width="336.975mm" height="229.963mm" viewBox="-44.987492 -230.987503 336.974976 229.962509">
    <path transform="matrix(1,0,0,-1,-18.024994,-263.037506)" style="stroke:#000000;stroke-width:0.050000mm;fill:none" d="M5.05,-35.049999L105.017677,-135.024994L205,-35.049999L5.05,-35.049999z"/>
    <path transform="matrix(1,0,0,-1,-50.037491,-241.024994)" style="stroke:#000000;stroke-width:0.050000mm;fill:none" d="M5.05,-40.049999L5.05,-240L105.025002,-140.024994L5.05,-40.049999z"/>
    <path transform="matrix(1,0,0,-1,76.995575,-271.037506)" style="stroke:#000000;stroke-width:0.050000mm;fill:none" d="M155.008835,-90.037498L205,-40.049999L205,-140.024994L155.008835,-90.037498z"/>
    <path transform="matrix(1,0,0,-1,63.987503,-267.024994)" style="stroke:#000000;stroke-width:0.050000mm;fill:none" d="M155.008835,-95.037498L205,-145.024994L155.012497,-195.012497L105.025002,-145.024994L155.008835,-95.037498z"/>
    <path transform="matrix(1,0,0,-1,86.987503,-266.912903)" style="stroke:#000000;stroke-width:0.050000mm;fill:none" d="M205,-155.925385L105.025002,-255.900391L205,-255.900391L205,-155.925385z"/>
    <path transform="matrix(1,0,0,-1,33.476837,-280.518738)" style="stroke:#000000;stroke-width:0.050000mm;fill:none" d="M102.517677,-147.524994L152.512497,-197.512497L52.533836,-197.512497L102.517677,-147.524994z"/>
    <path transform="matrix(1,0,0,-1,28.96875,-266.906616)" style="stroke:#000000;stroke-width:0.050000mm;fill:none" d="M155.012497,-200.912888L55.03384,-200.912888L5.05,-250.900375L105.025002,-250.900375L155.012497,-200.912888z"/>
</svg>
