<?xml version="1.0" encoding="UTF-8" standalone="no"?>
<svg xmlns="http://www.w3.org/2000/svg" xmlns:xlink="http://www.w3.org/1999/xlink" width="46.999mm" height="55.540mm" viewBox="9.500498 -107.769791 46.999001 55.539574">
    <path transform="matrix(1,0,0,-1,33.182716,-76.976242)" style="stroke:#000000;stroke-width:0.050000mm;fill:none" d="M10.165527,-0.049316C10.76988,-0.034705,11.355091,0.166792,11.840332,0.527344C12.586417,1.135514,12.79067,2.188187,12.326172,3.03125C11.895561,3.638824,11.086524,3.840774,10.420898,3.506836C9.750169,3.163098,9.472018,2.349378,9.791992,1.666992C9.935328,1.315654,10.179043,1.014364,10.492676,0.800781C10.092749,0.603247,9.630295,0.572147,9.20752,0.714355C8.34445,0.994648,7.647951,1.639217,7.301758,2.478027C6.581996,4.03712,6.915074,5.879099,8.135254,7.087402C8.68716,7.632289,9.485579,7.845906,10.23584,7.649414L10.399902,7.592773L10.23584,7.430664C9.603375,6.796324,9.537835,5.791704,10.08252,5.080566C10.609107,4.515531,11.477711,4.444715,12.088867,4.916992C12.468731,5.246429,12.647707,5.751462,12.560059,6.246582C12.445787,7.146443,11.821955,7.899265,10.958984,8.178711C9.541433,8.674477,7.96743,8.150143,7.130371,6.90332C5.943312,5.15653,6.015414,2.846129,7.309082,1.176758C7.99847,0.319127,9.068942,-0.140352,10.165527,-0.049316zM-4.431152,6.313965L-4.283691,6.359863C-3.937117,6.504464,-3.740593,6.873406,-3.813965,7.241699C-3.902563,7.664595,-4.312494,7.939257,-4.737305,7.860352C-5.104895,7.782646,-5.36972,7.460638,-5.375,7.084961C-5.370354,6.709868,-5.104868,6.388886,-4.737305,6.313965C-4.636251,6.293782,-4.532206,6.293783,-4.431152,6.313965zM10.870605,5.369141L10.744141,5.422363C10.443398,5.633781,10.294036,6.000989,10.361816,6.362305C10.424235,6.72663,10.605934,7.059805,10.878418,7.30957L11.026367,7.180176C11.379552,6.877187,11.570695,6.426429,11.542969,5.961914C11.527571,5.702287,11.368331,5.473134,11.130371,5.368164C11.045206,5.345616,10.955599,5.345953,10.870605,5.369141zM20.049805,-0.052246C20.720495,-0.015649,21.305843,0.416306,21.538574,1.046387C21.842775,1.874546,21.90159,2.772538,21.708008,3.633301C21.608311,4.24168,21.365679,4.817635,21,5.313965C20.898006,5.452139,20.751066,5.550557,20.584473,5.592285C20.355192,5.651595,20.11759,5.5289,20.033203,5.307617C19.97938,5.130391,20.026194,4.937521,20.155273,4.804688L20.394043,4.552246C21.194605,3.709339,21.422462,2.47336,20.975098,1.400391C20.823441,1.010076,20.481981,0.725221,20.070801,0.645996C19.609058,0.551113,19.14909,0.820095,19.005371,1.269043C18.922525,1.516187,18.882086,1.775497,18.885742,2.036133L18.885742,2.949219C18.922764,3.68298,18.602484,4.38978,18.026367,4.845703C16.77066,5.687146,15.085147,5.453286,14.105957,4.301758C13.1829,3.204049,13.235088,1.588108,14.227051,0.552246C14.831811,-0.054439,15.747586,-0.225092,16.530273,0.123047C17.271372,0.492574,17.6082,1.367606,17.306152,2.138672C17.092052,2.783408,16.427378,3.164844,15.762695,3.024414C15.154305,2.907335,14.723389,2.362145,14.75,1.743164C14.761222,1.423226,14.851819,1.111167,15.013672,0.834961C14.35627,1.206372,13.992748,1.942131,14.097168,2.689941C14.218004,3.858636,15.259224,4.710584,16.428711,4.597656C17.262953,4.551654,17.91494,3.857951,17.90918,3.022461L17.90918,2.075195C17.878914,1.527025,18.039371,0.985263,18.363281,0.541992C18.681725,0.182487,19.133352,-0.030977,19.613281,-0.048828C19.758511,-0.06062,19.904411,-0.061763,20.049805,-0.052246zM-21.125488,-2.478027L-21.025879,-2.456055C-20.824356,-2.418481,-20.673166,-2.250273,-20.657227,-2.045898C-20.669916,-1.954536,-20.727859,-1.87624,-20.811523,-1.837402L-20.981445,-1.726563C-21.042929,-1.700926,-21.092388,-1.652379,-21.117611,-1.590746C-21.142834,-1.529114,-21.1416,-1.459821,-21.115723,-1.398438C-20.998463,-1.237159,-20.812658,-1.140736,-20.613281,-1.137695C-20.535454,-1.128868,-20.457228,-1.123979,-20.378906,-1.123047L-18.948242,-1.123047C-18.24548,-1.153542,-17.549164,-0.976023,-16.946777,-0.612793C-16.236816,-0.141496,-15.795907,0.641716,-15.76123,1.493164C-15.699326,1.947771,-15.78474,2.410449,-16.004883,2.812988C-16.281075,3.267929,-16.799025,3.51849,-17.327148,3.452637C-17.797882,3.417969,-18.246347,3.238753,-18.611328,2.939453L-18.611328,4.609375L-16.726563,4.609375L-16.726563,5.244141L-21.628906,5.244141L-21.628906,0L-20.994141,0L-20.994141,4.609375L-19.587891,4.609375L-19.587891,0L-18.611328,0L-18.611328,1.953125C-18.33563,2.312009,-17.934683,2.552577,-17.488281,2.626953C-17.149664,2.608478,-16.863075,2.370479,-16.782715,2.041016C-16.51749,0.927277,-17.198671,-0.192849,-18.30957,-0.469727C-18.554951,-0.53228,-18.807323,-0.563129,-19.060547,-0.561523L-21.013672,-0.561523C-21.386744,-0.536797,-21.748882,-0.69562,-21.983398,-0.986816C-22.270187,-1.36316,-22.235607,-1.893119,-21.902344,-2.229004C-21.691544,-2.420438,-21.408298,-2.511233,-21.125488,-2.478027zM-9.44043,-0.052246L-9.277832,-0.032227C-8.498577,0.073779,-7.931591,0.762764,-7.977539,1.547852C-7.964972,1.940914,-8.107088,2.323922,-8.375752,2.611083C-8.644416,2.898244,-9.017128,3.065509,-9.410156,3.079102C-9.744573,3.094174,-10.079472,3.096456,-10.414063,3.085938L-10.414063,4.609375L-8.954102,4.609375L-8.954102,5.244141L-13.280273,5.244141L-13.280273,3.085938L-13.484863,3.073242C-14.23868,3.043668,-14.843291,2.438419,-14.87207,1.68457C-14.862977,1.025155,-14.457176,0.436215,-13.844238,0.192871C-12.968457,-0.184827,-11.970024,-0.144631,-11.127441,0.302246C-10.747264,0.559993,-10.499504,0.971618,-10.449707,1.428223C-10.410975,1.767764,-10.399058,2.109762,-10.414063,2.451172C-10.177733,2.462921,-9.94089,2.459006,-9.705078,2.439453C-9.340366,2.417441,-9.037865,2.14826,-8.973633,1.788574C-8.914268,1.508884,-8.964796,1.217079,-9.114746,0.973633C-9.397852,0.6526,-9.847015,0.53688,-10.25,0.681152L-10.414063,0.751953L-10.414063,0.097656C-10.10671,-0.031616,-9.772431,-0.083082,-9.44043,-0.052246zM-0.892578,-2.478027C-0.690248,-2.46246,-0.514042,-2.334224,-0.437012,-2.146484C-0.398926,-2.058027,-0.424768,-1.954659,-0.5,-1.894531C-0.579966,-1.834399,-0.662919,-1.778337,-0.748535,-1.726563L-0.827148,-1.66748C-0.902609,-1.599546,-0.925121,-1.490738,-0.882813,-1.398438C-0.76529,-1.238092,-0.579172,-1.143314,-0.380371,-1.142578C-0.302543,-1.133751,-0.224318,-1.128862,-0.145996,-1.12793L2.17334,-1.12793C2.786563,-1.150699,3.398496,-1.052968,3.974121,-0.840332C4.813092,-0.543259,5.382599,0.241612,5.404785,1.131348C5.495788,1.714836,5.294217,2.306037,4.865723,2.712402C4.569532,2.96265,4.191833,3.095558,3.804199,3.085938L2.979004,3.085938L2.979004,4.609375L4.438965,4.609375L4.438965,5.244141L0.112793,5.244141L0.112793,3.085938L-0.091797,3.073242C-0.845555,3.043566,-1.450123,2.438359,-1.479004,1.68457C-1.469393,1.025319,-1.063773,0.43664,-0.451172,0.192871C0.365334,-0.152331,1.28685,-0.147392,2.099609,0.206543C2.571798,0.441938,2.890624,0.903304,2.943848,1.428223C2.982021,1.7678,2.993774,2.109775,2.979004,2.451172C3.215494,2.465809,3.452792,2.46091,3.688477,2.436523C4.0776,2.375939,4.37768,2.061026,4.419434,1.669434C4.520104,1.078472,4.341796,0.473954,3.936523,0.032227C3.572629,-0.297471,3.109696,-0.496828,2.620117,-0.534668C2.471766,-0.551477,2.322638,-0.56044,2.17334,-0.561523L-0.780762,-0.561523C-1.153829,-0.536809,-1.515965,-0.695631,-1.750488,-0.986816C-2.03718,-1.363179,-2.002603,-1.893088,-1.669434,-2.229004C-1.458582,-2.420354,-1.17538,-2.511135,-0.892578,-2.478027zM-3.607422,0.195313L-3.607422,4.609375L-2.386719,4.609375L-2.386719,5.244141L-6.952148,5.244141L-6.952148,0L-6.317383,0L-6.317383,4.609375L-4.583984,4.609375L-4.583984,0.083008L-6.737305,-1.616211L-6.317383,-2.060547L-3.607422,0.195313zM0.747559,3.085938L0.747559,4.609375L2.002441,4.609375L2.002441,3.085938L0.747559,3.085938zM-12.645508,3.085938L-12.645508,4.609375L-11.390625,4.609375L-11.390625,3.085938L-12.645508,3.085938zM10.848633,1.24707L10.716797,1.369629C10.366261,1.673905,10.225266,2.1547,10.355957,2.600098C10.464767,2.910971,10.792878,3.087629,11.112305,3.007324C11.374573,2.896919,11.54506,2.640516,11.54541,2.355957C11.566042,1.88409,11.362206,1.430619,10.995605,1.132813L10.848633,1.24707zM0.356934,0.600586L0.10791,0.644531C-0.226158,0.706972,-0.520608,0.902684,-0.70752,1.186523C-0.878353,1.454632,-0.893232,1.793131,-0.746582,2.075195C-0.543749,2.309525,-0.249374,2.443624,0.060547,2.442871L0.259277,2.451172L2.002441,2.451172C2.037068,2.108073,2.008925,1.76125,1.919434,1.428223C1.759454,0.930188,1.296049,0.592304,0.772949,0.592285C0.634335,0.581578,0.49501,0.584358,0.356934,0.600586zM-13.040527,0.600586C-13.421639,0.620493,-13.778386,0.795161,-14.027832,1.083984C-14.262333,1.361408,-14.306451,1.752501,-14.139648,2.075195C-13.937037,2.309535,-13.642792,2.443655,-13.333008,2.442871L-13.133789,2.451172L-11.390625,2.451172C-11.356653,2.108061,-11.384786,1.761367,-11.473633,1.428223C-11.634884,0.929006,-12.100389,0.591031,-12.625,0.592285C-12.76345,0.581576,-12.902615,0.584356,-13.040527,0.600586zM15.731934,0.773438L15.631348,0.866699C15.301443,1.276909,15.2972,1.859441,15.621094,2.274414C15.748238,2.424616,15.968216,2.455528,16.131836,2.346191C16.375229,2.118392,16.483351,1.781482,16.417969,1.45459C16.398485,1.193502,16.275137,0.950852,16.075684,0.78125C16.031836,0.732986,15.970633,0.703123,15.905529,0.701643C15.840426,0.700164,15.777929,0.727216,15.731934,0.773438zM-11.758789,-12.191406C-11.382986,-12.160528,-11.029563,-12.00021,-10.758789,-11.737793C-10.185788,-11.15508,-10.148827,-10.233159,-10.67334,-9.606445C-11.103861,-9.117947,-11.824627,-9.014153,-12.375488,-9.361328C-12.874227,-9.71429,-13.064063,-10.363663,-12.833984,-10.929688C-12.766255,-11.096452,-12.67766,-11.25396,-12.570313,-11.398438C-13.012206,-11.115267,-13.320444,-10.665237,-13.424805,-10.150879C-13.650061,-9.290071,-13.317352,-8.380473,-12.589844,-7.868164C-11.904812,-7.450763,-11.053761,-7.415357,-10.336426,-7.774414C-9.794591,-8.105009,-9.43479,-8.666039,-9.360352,-9.296387C-9.239292,-10.026025,-9.446347,-10.771708,-9.92627,-11.334473L-10.045898,-11.481445L-9.806641,-12.140625L-5.304688,-12.140625L-5.304688,-6.896484L-6.28125,-6.896484L-6.28125,-7.65332C-6.373756,-7.800555,-6.522013,-7.903609,-6.691964,-7.940355C-6.861914,-7.9771,-7.039502,-7.944499,-7.18457,-7.848633C-7.438253,-7.613022,-7.591011,-7.288982,-7.611328,-6.943359C-7.666646,-6.437706,-7.517545,-5.931098,-7.197863,-5.535436C-6.878181,-5.139774,-6.414196,-4.887582,-5.908203,-4.835449C-5.605822,-4.79338,-5.297883,-4.847893,-5.02832,-4.991211C-4.757039,-5.169024,-4.573749,-5.453001,-4.523438,-5.773438C-4.471541,-6.037076,-4.448619,-6.305597,-4.455078,-6.574219L-4.455078,-12.140625L-3.820313,-12.140625L-3.820313,-6.349609C-3.790522,-5.859362,-3.843189,-5.367366,-3.976074,-4.894531C-4.149998,-4.318253,-4.664784,-3.911062,-5.265625,-3.874512C-6.271977,-3.70624,-7.281935,-4.155004,-7.831543,-5.014648C-8.390879,-5.933256,-8.419685,-7.078856,-7.907227,-8.024414C-7.696532,-8.418606,-7.289628,-8.668721,-6.842773,-8.678711C-6.63542,-8.674395,-6.436464,-8.596543,-6.28125,-8.458984L-6.28125,-11.505859L-8.976563,-11.505859L-8.855957,-11.334473C-8.466088,-10.694329,-8.290493,-9.94698,-8.354492,-9.200195C-8.533215,-7.838101,-9.697536,-6.821517,-11.071289,-6.828125C-11.796861,-6.79985,-12.512058,-7.009607,-13.107422,-7.425293C-13.774364,-7.938077,-14.152592,-8.741266,-14.123047,-9.582031C-14.155501,-10.490599,-13.729303,-11.354918,-12.98877,-11.882324C-12.626371,-12.12335,-12.192077,-12.232483,-11.758789,-12.191406zM6.45459,-11.996094C6.916283,-11.348322,7.217816,-10.600346,7.334473,-9.813477C7.540061,-8.452226,6.637004,-7.16965,5.286133,-6.904297C4.423007,-6.723,3.523442,-6.928972,2.825195,-7.467773C1.550929,-6.690421,-0.03452,-6.629996,-1.364258,-7.308105C-2.281789,-7.82087,-2.834572,-8.805128,-2.794922,-9.855469C-2.821697,-10.471607,-2.618021,-11.075672,-2.223633,-11.549805C-1.47504,-12.325399,-0.269071,-12.424591,0.596191,-11.781738C1.008585,-11.433216,1.195807,-10.885448,1.083008,-10.357422C1.041037,-9.768679,0.615759,-9.277559,0.039063,-9.151855C-0.373513,-9.062544,-0.804973,-9.144324,-1.15625,-9.378418C-1.592186,-9.733438,-1.764911,-10.31927,-1.591309,-10.854004C-1.558174,-10.995253,-1.504721,-11.130939,-1.432617,-11.256836C-1.897712,-10.968031,-2.171911,-10.451343,-2.150391,-9.904297C-2.170947,-8.845377,-1.460118,-7.911087,-0.434082,-7.648438C0.473411,-7.358432,1.465028,-7.510292,2.244141,-8.058594L2.078613,-8.297363C1.507646,-9.214826,1.367093,-10.335689,1.693848,-11.365723C1.873707,-11.842601,2.320448,-12.166804,2.82959,-12.189941C3.4698,-12.290627,4.087878,-11.907314,4.282227,-11.289063C4.692198,-10.085651,4.345716,-8.753506,3.401367,-7.902344C3.745045,-7.651988,4.157868,-7.513812,4.583008,-7.506836C5.111127,-7.523703,5.598553,-7.794697,5.891602,-8.234375C6.273815,-8.756802,6.444896,-9.404325,6.370605,-10.047363C6.357369,-10.757067,6.125209,-11.4457,5.706055,-12.018555L6.223633,-12.316406L6.45459,-11.996094zM15.002441,-11.505859L9.211426,-11.505859L9.211426,-6.896484L8.234863,-6.896484L8.234863,-12.140625L15.002441,-12.140625L15.002441,-11.505859zM2.722168,-11.48877C2.515352,-11.40061,2.360855,-11.22255,2.302734,-11.005371C2.03688,-10.152143,2.210624,-9.222153,2.766602,-8.522461L2.92334,-8.713867C3.45916,-9.389311,3.609348,-10.293024,3.320801,-11.105469C3.265447,-11.265513,3.150998,-11.398487,3.000977,-11.477051C2.911813,-11.511365,2.813896,-11.515482,2.722168,-11.48877zM-11.961914,-11.364258C-12.245008,-11.031013,-12.353465,-10.583602,-12.254395,-10.157715C-12.18601,-9.942364,-11.985713,-9.796242,-11.759766,-9.796875C-11.504266,-9.847614,-11.313404,-10.059896,-11.290039,-10.319336C-11.250978,-10.667934,-11.367441,-11.016072,-11.608398,-11.270996L-11.833008,-11.505859L-11.961914,-11.364258zM-0.563477,-11.5C-0.717203,-11.448583,-0.83465,-11.323244,-0.875977,-11.166504C-1.036909,-10.810514,-1.034235,-10.40219,-0.868652,-10.04834C-0.746351,-9.85071,-0.509746,-9.755553,-0.284668,-9.813477C-0.048967,-9.929113,0.103304,-10.165792,0.11084,-10.428223C0.174815,-10.803796,0.033037,-11.185162,-0.260742,-11.427734C-0.347486,-11.492249,-0.456945,-11.518378,-0.563477,-11.5z"/>
    <path transform="matrix(1.068046,0,0,-1.068046,-60.986259,56.709908)" style="stroke:#000000;stroke-width:0.046814mm;fill:none" d="M87.693359,146.015625L87.395508,146.061035C85.886551,146.371414,84.857849,147.774185,85.015625,149.306641C85.184799,150.955032,86.658302,152.154083,88.306641,151.984375C89.836937,151.827423,91.000374,150.538315,91,149C91.000122,147.343018,89.656982,145.999878,88,146L87.693359,146.015625z"/>
    <path transform="matrix(1.068046,0,0,-1.068046,-60.986259,56.709908)" style="stroke:#000000;stroke-width:0.046814mm;fill:none" d="M89.07959,102.026367L89.180664,102.031738C101.314728,102.681755,110.622528,113.046822,109.968262,125.180664C109.420944,135.434006,101.850571,143.942596,91.730469,145.678711L91.858398,145.819336C93.497421,147.8069,93.357674,150.714386,91.535645,152.535645C89.583092,154.488846,86.416901,154.488846,84.464355,152.535645C82.588226,150.664459,82.502663,147.653381,84.269531,145.678711L83.617676,145.5625C72.091225,143.218292,64.446312,132.224014,66.261719,120.602539C67.999222,109.486801,77.842484,101.473335,89.07959,102.026367z"/>
</svg>
