<?xml version="1.0" encoding="UTF-8" standalone="no"?>
<svg xmlns="http://www.w3.org/2000/svg" xmlns:xlink="http://www.w3.org/1999/xlink" width="20.001mm" height="64.298mm" viewBox="73.999626 -122.149033 20.000748 64.298073">
    <path transform="matrix(1,0,0,-1,-35.003532,-4.146729)" style="stroke:#000000;stroke-width:0.050000mm;fill:none" d="M119.737793,53.739258L120.189453,53.805176C121.171219,53.961109,122.108643,54.324528,122.938965,54.871094C123.85556,55.506599,124.536865,56.427017,124.876953,57.489258C125.252327,58.64349,125.337013,59.872566,125.123535,61.067383C124.738052,63.123562,124.331497,65.178093,123.904785,67.226074L123.900391,67.381836C123.919243,67.612839,124.056145,67.817291,124.261719,67.924316L125.065918,68.396484C126.260635,69.135551,127.257675,70.154106,127.971191,71.364258C128.757034,72.746399,129.107727,74.333382,128.977539,75.917969C128.890991,77.271599,128.490234,78.586479,127.807129,79.758301C127.096008,80.988983,126.030174,81.976715,124.749023,82.592285C123.842331,83.019493,122.844276,83.21656,121.843262,83.166016L121.680664,83.17041L121.517578,83.178223C121.330681,83.168419,121.132645,83.158257,120.945801,83.148926L120.851563,83.175781C120.701637,83.279526,120.609276,83.447212,120.602051,83.629395L120.419434,84.606445C120.219818,85.663864,119.997086,86.716965,119.751465,87.764648L119.718262,87.993652C119.644936,88.445709,119.846451,88.898674,120.230957,89.147461L120.333496,89.236328C120.427315,89.340179,120.515785,89.44873,120.598633,89.561523C122.074409,91.260941,123.229889,93.213982,124.008789,95.325684C125.316704,98.965561,125.237091,102.960548,123.785156,106.54541C123.546974,107.179207,123.269226,107.797478,122.953613,108.396484C125.494392,109.475128,126.681183,112.408249,125.604927,114.950035C124.528679,117.491829,121.596481,118.680878,119.053711,117.606934C116.509766,116.531723,115.318657,113.598,116.393066,111.053711C116.891533,109.874191,117.824074,108.931313,118.998047,108.419922L118.789551,108.094238C118.013092,106.810799,117.452255,105.408722,117.129395,103.943848C116.565956,101.407799,116.492531,98.787254,116.913086,96.223633C117.071045,95.232933,117.263878,94.2481,117.491211,93.270996L117.503418,93.141602C117.508385,92.887329,117.400818,92.643532,117.208984,92.476563L115.761719,90.995605C114.791153,90.015121,113.863342,88.993149,112.980957,87.932617C112.16629,86.965233,111.435463,85.930244,110.796387,84.838867C109.980148,83.450836,109.421051,81.926895,109.145996,80.340332C108.849709,78.464493,109.006577,76.545021,109.603516,74.742188C110.330399,72.345688,111.803085,70.243492,113.807129,68.741699C116.245255,66.947685,119.362526,66.347481,122.29248,67.10791L122.410645,67.128418C122.546562,67.159584,122.684624,67.082367,122.727539,66.949707C122.749901,66.889694,122.767303,66.827957,122.779785,66.765137L123.297852,64.299316L123.824707,61.835449C124.04583,60.793724,124.079887,59.721134,123.925293,58.66748C123.488815,56.287556,121.296692,54.642773,118.889648,54.88916C118.319489,54.9356,117.766449,55.105526,117.268555,55.387207C117.030525,55.528862,116.841934,55.740189,116.728027,55.992676C116.71637,56.056602,116.741203,56.121857,116.792969,56.161133C116.878891,56.193821,116.973083,56.197933,117.061523,56.172852L117.333008,56.202148C118.956146,56.426418,120.116905,57.886665,119.969238,59.518555C119.831619,60.953838,118.800499,62.14389,117.399414,62.484375C116.521881,62.646294,115.618423,62.399731,114.944824,61.814453C113.386795,60.479218,113.021049,58.214813,114.07959,56.457031C115.28801,54.540188,117.486221,53.48436,119.737793,53.739258z"/>
    <path transform="matrix(1,0,0,-1,-35.003532,-4.146729)" style="stroke:#000000;stroke-width:0.050000mm;fill:none" d="M120.395508,110.061035L120.10791,110.134766C118.635635,110.593796,117.750816,112.093849,118.061035,113.604492C118.371346,115.113464,119.774185,116.142075,121.306641,115.984375C122.954994,115.815163,124.153893,114.341682,123.984375,112.693359C123.859428,111.462967,122.990273,110.436607,121.797363,110.110352L121.719727,110.172363C121.495262,110.320175,121.207687,110.33268,120.97168,110.204102C120.851898,110.152962,120.735901,110.093376,120.624512,110.025879L120.395508,110.061035z"/>
    <path transform="matrix(1,0,0,-1,-35.003532,-4.146729)" style="stroke:#000000;stroke-width:0.050000mm;fill:none" d="M118.578125,93.916992L118.416016,94.541016C118.105103,95.965515,118.006737,97.428024,118.124023,98.881348C118.284508,100.471222,118.742622,102.016571,119.474609,103.437012C119.843567,104.16571,120.429527,104.762329,121.151367,105.144531C121.48896,105.333427,121.88765,105.383804,122.260323,105.280159C122.632996,105.176514,122.948425,104.927528,123.140625,104.591797C123.429085,104.085938,123.567772,103.508423,123.540039,102.926758C123.436615,101.234299,122.945656,99.58828,122.10498,98.115723C121.328247,96.791939,120.391739,95.568787,119.316406,94.473633L118.735352,93.847168L118.578125,93.916992z"/>
    <path transform="matrix(1,0,0,-1,-35.003532,-4.146729)" style="stroke:#000000;stroke-width:0.050000mm;fill:none" d="M119.398438,68.007324L118.895996,68.053223C117.448006,68.185547,116.055222,68.674934,114.842773,69.477539C113.194511,70.59655,112.033661,72.30027,111.595215,74.243652C111.353256,75.499168,111.383865,76.79203,111.685059,78.034668C112.013885,79.490242,112.621971,80.868286,113.475586,82.092285C114.378822,83.390579,115.411255,84.593948,116.557129,85.684082C117.142471,86.276764,117.755486,86.841553,118.394043,87.376465C118.448402,87.437119,118.529762,87.467514,118.609863,87.453125C118.701714,87.368523,118.75338,87.248894,118.752441,87.124023L119.128906,85.196289L119.525391,83.271973C119.592949,83.065849,119.511276,82.839874,119.328125,82.723633C119.148125,82.614441,118.964607,82.511215,118.777832,82.414063L118.44043,82.208496C116.577576,81.035126,115.355034,79.073067,115.122559,76.883789C114.966614,74.363571,116.31356,71.990082,118.557129,70.831543L119.081543,70.605957C119.268227,70.506546,119.491234,70.502663,119.682129,70.59375C119.832214,70.690125,119.892052,70.880081,119.822754,71.044434C119.779182,71.117928,119.717209,71.178726,119.643066,71.221191L119.240234,71.448242C118.47509,71.831985,117.849899,72.446609,117.453125,73.205078C116.974976,74.173653,116.940994,75.302208,117.359863,76.297852C117.790359,77.326134,118.545074,78.185165,119.509277,78.744629C119.716454,78.877853,119.945084,78.974281,120.185059,79.029785C120.241302,79.035217,120.296387,79.009232,120.325684,78.960938C120.391037,78.827629,120.434494,78.684769,120.454102,78.537598C120.993652,75.816803,121.529297,73.097076,122.061523,70.374023C122.188652,69.835312,122.29953,69.292938,122.394043,68.747559C122.42305,68.646332,122.410202,68.537407,122.357056,68.446518C122.303909,68.355629,122.215279,68.291016,122.113281,68.264648C121.227997,68.033524,120.311386,67.94664,119.398438,68.007324z"/>
    <path transform="matrix(1,0,0,-1,-35.003532,-4.146729)" style="stroke:#000000;stroke-width:0.050000mm;fill:none" d="M123.681152,68.844238L123.628418,68.87207C123.567627,68.949326,123.529587,69.041672,123.51709,69.13916L122.54834,73.963379L121.569336,78.78418C121.5233,78.90947,121.54261,79.0494,121.620605,79.157715C121.725716,79.232178,121.857704,79.258751,121.98291,79.228516C123.079308,79.142372,124.116043,78.694031,124.929688,77.954102C126.006157,76.949394,126.637268,75.556267,126.682617,74.084473C126.783249,72.542458,126.218483,71.031319,125.131348,69.933105C124.743202,69.518593,124.299942,69.1595,123.813965,68.865723C123.772812,68.845543,123.726631,68.838776,123.681152,68.844238z"/>
</svg>
