<?xml version="1.0" encoding="UTF-8" standalone="no"?>
<svg xmlns="http://www.w3.org/2000/svg" xmlns:xlink="http://www.w3.org/1999/xlink" width="46.999mm" height="55.540mm" viewBox="4.500497 -121.769791 46.999001 55.539574">
    <path transform="matrix(1.068046,0,0,-1.068046,-65.986259,42.709908)" style="stroke:#000000;stroke-width:0.046814mm;fill:none" d="M87.693359,146.015625L87.395508,146.061035C85.886551,146.371414,84.857849,147.774185,85.015625,149.306641C85.184799,150.955032,86.658302,152.154083,88.306641,151.984375C89.836937,151.827423,91.000374,150.538315,91,149C91.000122,147.343018,89.656982,145.999878,88,146L87.693359,146.015625z"/>
    <path transform="matrix(1.068046,0,0,-1.068046,-65.986259,42.709908)" style="stroke:#000000;stroke-width:0.046814mm;fill:none" d="M89.07959,102.026367L89.180664,102.031738C101.314728,102.681755,110.622528,113.046822,109.968262,125.180664C109.420944,135.434006,101.850571,143.942596,91.730469,145.678711L91.858398,145.819336C93.497421,147.8069,93.357674,150.714386,91.535645,152.535645C89.583092,154.488846,86.416901,154.488846,84.464355,152.535645C82.588226,150.664459,82.502663,147.653381,84.269531,145.678711L83.617676,145.5625C72.091225,143.218292,64.446312,132.224014,66.261719,120.602539C67.999222,109.486801,77.842484,101.473335,89.07959,102.026367z"/>
</svg>
