<?xml version="1.0" encoding="UTF-8" standalone="no"?>
<svg xmlns="http://www.w3.org/2000/svg" xmlns:xlink="http://www.w3.org/1999/xlink" width="61.008mm" height="59.035mm" viewBox="43.000977 -109.995117 61.008492 59.034599">
    <path transform="matrix(1,0,0,-1,0,0)" style="stroke:#000000;stroke-width:0.050000mm;fill:none" d="M103.405273,50.987305C103.596458,51.165096,103.723419,51.401211,103.766602,51.658691C103.986328,52.627544,104.057617,53.624001,103.978027,54.614258C103.792488,57.265434,103.099625,59.856224,101.937012,62.246094C101.113022,63.965599,100.084961,65.579575,98.875,67.053223C98.965492,67.258438,99.032684,67.473145,99.075195,67.693359L99.159668,67.907227C99.897858,70.853134,100.116783,73.905167,99.806641,76.92627C99.48513,80.04464,98.70697,83.098709,97.49707,85.990723C96.62661,88.090469,95.565033,90.105789,94.325684,92.01123L94.713379,92.030762C99.469696,92.407471,103.103951,96.43219,102.995117,101.202148C102.942993,103.588242,101.943771,105.855309,100.218658,107.504585C98.493546,109.15387,96.183876,110.050232,93.797852,109.995117C89.334358,109.896317,85.619217,106.538689,85.070801,102.10791L84.255859,102.739258C83.044746,103.643288,81.786339,104.48201,80.48584,105.251953C83.274452,101.538483,85.339981,97.333717,86.574707,92.856934C87.656944,88.941612,87.931885,84.84713,87.382813,80.822266C87.189857,79.383377,86.860931,77.966141,86.400391,76.589355L86.189453,76.032715C85.176331,76.647987,84.178162,77.287071,83.195313,77.949707C75.158554,83.417709,67.579422,89.529312,60.532227,96.224609C59.12973,97.553345,57.748566,98.902435,56.387207,100.273438L56.38623,100.265625C56.940075,99.372665,57.528538,98.501785,58.150391,97.654785C62.435165,91.610695,67.072556,85.82415,72.038086,80.325684L73.788574,78.455078C71.144836,80.069221,68.568764,81.792137,66.067383,83.619141C60.973587,87.249207,56.047699,91.109528,51.305176,95.187988C50.522133,95.87075,49.748848,96.565392,48.986328,97.270996C49.447239,96.451233,49.965805,95.665222,50.538086,94.918945C51.145081,94.121994,51.768417,93.337654,52.407715,92.566406C55.985229,87.92189,59.754181,83.428391,63.705078,79.097168C66.938759,75.562866,70.381035,72.22496,74.013184,69.101563C75.241821,68.053047,76.498199,67.037788,77.78125,66.056641C74.956665,64.36499,71.810509,63.280571,68.543457,62.872559C64.941895,62.425571,61.289589,62.621147,57.756348,63.450195C54.124985,64.283768,50.632084,65.633537,47.383789,67.458496C45.881386,68.351585,44.419075,69.310333,43.000977,70.332031C46.539215,64.80246,51.300072,60.159378,56.916504,56.760742C59.091316,55.469723,61.378872,54.378811,63.750977,53.501465C67.671608,51.998684,71.83493,51.228909,76.033691,51.230469C79.505348,51.225693,82.943771,51.90757,86.150879,53.236816C86.845238,53.531265,87.52401,53.861115,88.18457,54.225098L88.32959,54.225098C88.644875,54.364357,88.9338,54.55695,89.183594,54.794434L89.513672,54.955078C90.951759,55.654263,92.496712,56.108128,94.084473,56.297852C95.710793,56.506172,97.3629,56.250397,98.850098,55.560059C100.052063,54.960922,101.095108,54.085876,101.894043,53.006348C102.344742,52.393688,102.749817,51.748707,103.105957,51.07666L103.154785,51.023438C103.219254,50.953419,103.324043,50.93771,103.405273,50.987305z"/>
    <path transform="matrix(1,0,0,-1,0,0)" style="stroke:#000000;stroke-width:0.050000mm;fill:none" d="M93.48877,96.025879L92.992188,96.101563C90.477409,96.619247,88.763329,98.957184,89.025879,101.51123C89.287369,104.061775,91.436089,106.000839,94,106C95.326263,106.000687,96.598228,105.473854,97.536041,104.536041C98.473854,103.598228,99.000679,102.326271,99,101C99.000679,99.673737,98.473854,98.401772,97.536041,97.463959C96.598228,96.526146,95.326263,95.999313,94,96L93.48877,96.025879z"/>
</svg>
